<?xml version="1.0" encoding="utf-8"?>
<!-- Generator: Adobe Illustrator 21.0.2, SVG Export Plug-In . SVG Version: 6.00 Build 0)  -->
<svg version="1.1" id="Слой_1" xmlns="http://www.w3.org/2000/svg" xmlns:xlink="http://www.w3.org/1999/xlink" x="0px" y="0px"
	 viewBox="0 0 93.3 118.8" style="enable-background:new 0 0 93.3 118.8;" xml:space="preserve">
<style type="text/css">
	.st0{fill:#202020;}
	.st1{fill:#FFFFFF;}
	.st2{fill:#FF5F5F;}
	.st3{fill:#451F63;}
</style>
<polygon class="st0" points="32.7,5.9 2.9,5.9 10.4,1 9.9,0.2 0.3,6.4 9.9,12.7 10.4,11.8 2.9,6.9 32.7,6.9 "/>
<path class="st0" d="M19,25l-2.9,1.2c0.6-1.2,0.9-2.5,0.9-3.8c0-4.6-3.8-8.4-8.4-8.4s-8.4,3.8-8.4,8.4s3.8,8.4,8.4,8.4v-1
	c-4.1,0-7.4-3.3-7.4-7.4S4.6,15,8.7,15s7.4,3.3,7.4,7.4c0,1.3-0.4,2.6-1,3.7L14,22.6l-1,0.3l1.5,5l4.8-1.9L19,25z"/>
<g>
	<polygon class="st1" points="41.8,6.8 33.9,1.1 34.5,0.3 41.8,5.5 49.1,0.3 49.7,1.1 	"/>
</g>
<g>
	<polygon class="st1" points="41.8,7.4 33.9,13 34.5,13.8 41.8,8.6 49.1,13.8 49.7,13 	"/>
</g>
<polygon points="32.7,14.7 32,14 26.6,19.3 21.3,14 20.6,14.7 25.9,20 20.6,25.4 21.3,26.1 26.6,20.7 32,26.1 32.7,25.4 27.3,20 "/>
<g>
	<g>
		<path class="st0" d="M40.6,40.9c-1.2,0-2.1-0.9-2.1-2.1s0.9-2.1,2.1-2.1s2.1,0.9,2.1,2.1S41.8,40.9,40.6,40.9z M40.6,37.6
			c-0.6,0-1.1,0.5-1.1,1.1s0.5,1.1,1.1,1.1s1.1-0.5,1.1-1.1S41.2,37.6,40.6,37.6z"/>
	</g>
	<g>
		<path class="st0" d="M51.8,40.9c-1.2,0-2.1-0.9-2.1-2.1s0.9-2.1,2.1-2.1s2.1,0.9,2.1,2.1S53,40.9,51.8,40.9z M51.8,37.6
			c-0.6,0-1.1,0.5-1.1,1.1s0.5,1.1,1.1,1.1s1.1-0.5,1.1-1.1S52.5,37.6,51.8,37.6z"/>
	</g>
	<g>
		<polygon class="st0" points="52.6,34.3 40.2,34.3 37.2,22.1 33.9,22.1 33.9,21.1 38,21.1 41,33.3 51.8,33.3 53.6,25.8 41.5,25.8 
			41.5,24.8 55,24.8 		"/>
	</g>
</g>
<g>
	<g>
		<polygon class="st2" points="64.3,33.7 66.6,33.7 66.6,21.9 76.8,21.2 76.8,18.9 57.6,20.1 57.7,22.5 64.3,22 		"/>
	</g>
	<g>
		<path class="st2" d="M68.4,33.5h9.8V23.1l-9.8,1.1V33.5z M70.8,26.3l5.1-0.6v5.5h-5.1V26.3z"/>
	</g>
	<g>
		<path class="st2" d="M82.3,28.6l6.7-0.7v-7.5l-9-0.5v13.7h2.3V28.6z M82.3,22.5l4.3,0.2v3.1l-4.3,0.5V22.5z"/>
	</g>
	<g>
		<polygon class="st2" points="63.7,35.6 59.5,35.6 59.5,37.9 63.7,37.9 63.7,45.6 66.1,45.6 66.1,37.9 69.3,37.9 69.3,35.6 
			66.1,35.6 		"/>
	</g>
	<g>
		<path class="st2" d="M71.1,45.5l17.8-0.4v-9.5H71.1V45.5z M73.6,37.9h13.1v4.9l-13.1,0.3V37.9z"/>
	</g>
	<g>
		<path class="st2" d="M60.1,59.5l18.2-1.6l-0.2-2.3L76,55.8l-1.7-8.2L64,47.9L62.8,57l-2.7,0.2V59.5z M65.9,50.1l6.5-0.2l1.3,6.1
			l-8.6,0.7L65.9,50.1z"/>
	</g>
	<g>
		<polygon class="st2" points="88.9,49.8 88.9,47.5 79.8,47.5 79.9,54.9 79.9,55.6 79.9,55.6 80.1,62.1 90.1,62.7 90.1,60.4 
			82.4,59.9 82.3,55.6 86.8,55.6 86.8,53.2 82.3,53.2 82.1,49.9 		"/>
	</g>
	<g>
		<polygon class="st2" points="70.9,60.6 62.1,61.4 59.2,72.7 61.5,73.3 64.1,63.6 68.8,63.1 69.8,73.5 72.1,73.2 		"/>
	</g>
	<g>
		<path class="st2" d="M90.3,73.4l-0.6-8.3l-13.6-0.6l-0.4-4.3l-2.3,0.2l1.2,12.9L90.3,73.4L90.3,73.4z M87.6,67.3l0.3,3.7H76.8
			l-0.4-4.1L87.6,67.3z"/>
	</g>
	<g>
		<polygon class="st2" points="66.3,75.2 66.4,80.4 61.8,81.4 61.8,75.1 59.5,75.1 59.5,89 61.8,89 61.8,83.7 66.6,82.7 66.9,88.9 
			69.3,88.8 68.6,75.1 		"/>
	</g>
	<g>
		<path class="st2" d="M90.9,75.8H70.6l0.9,7.3l12.8,1l-5.5,2.4l-7.5,0.1v2.3l8-0.1l9.6-4.2l0.2,4.4l2.3-0.1L90.9,75.8z M73.6,80.9
			l-0.4-2.8h15.4l0.2,4L73.6,80.9z"/>
	</g>
	<g>
		<path class="st2" d="M75.9,17.1l3.7-5.1l-2.7-4.8L74,8.4L74.6,4l3.1-1.7l-1.1-2.1l-4.2,2.2l-1,6.2L69.3,8l-2.2,4.6l3.7,4.9
			L75.9,17.1z M70.6,10.9l2.1,0.7l3.2-1.4l1,1.7l-2.2,3L71.8,15l-2.1-2.7L70.6,10.9z"/>
	</g>
</g>
<path class="st1" d="M85.4,96.6L74.3,91c-0.5-0.2-1.1,0-1.3,0.5c-0.2,0.5,0,1.1,0.5,1.3l7.3,3.6H1.5c-0.6,0-1,0.4-1,1s0.4,1,1,1
	h79.3l-7.3,3.6c-0.5,0.2-0.7,0.8-0.5,1.3c0.2,0.4,0.5,0.6,0.9,0.6c0.1,0,0.3,0,0.4-0.1l11-5.5c0.3-0.2,0.6-0.5,0.6-0.9
	S85.8,96.8,85.4,96.6z"/>
<path class="st3" d="M85.4,111.2l-11.2-5.5c-0.5-0.2-1.1,0-1.3,0.5c-0.2,0.5,0,1.1,0.5,1.3l7.3,3.6H1.5c-0.6,0-1,0.4-1,1s0.4,1,1,1
	h79.3l-7.3,3.6c-0.5,0.2-0.7,0.8-0.5,1.3c0.2,0.4,0.5,0.6,0.9,0.6c0.1,0,0.3,0,0.4-0.1l11-5.5c0.3-0.2,0.6-0.5,0.6-0.9
	S85.8,111.4,85.4,111.2z"/>
<g>
	<path class="st2" d="M17.1,74.5l0.3-4.5l3-2l-1.3-2l-4,2.6l-0.5,6.3l-2.3-0.5l-1.8,4.9l4.1,4.6l5.2-0.8l3.3-5.4l-3.2-4.6L17.1,74.5
		z M18.4,80.9l-2.8,0.4l-2.3-2.6l0.6-1.5l2.2,0.5l3.1-1.7l1.1,1.6L18.4,80.9z"/>
	<path class="st2" d="M25.5,59.9l-15.2,1.3L1.1,74.4l7.7,14.8l18.1-1.5l5.1-9.1L25.5,59.9z M25.5,85.5l-15.3,1.2L3.9,74.6l7.8-11.1
		l12.2-1.1l5.6,16.1L25.5,85.5z"/>
</g>
</svg>
