<?xml version="1.0" encoding="utf-8"?>
<!-- Generator: Adobe Illustrator 21.0.2, SVG Export Plug-In . SVG Version: 6.00 Build 0)  -->
<svg version="1.1" id="Слой_1" xmlns="http://www.w3.org/2000/svg" xmlns:xlink="http://www.w3.org/1999/xlink" x="0px" y="0px"
	 viewBox="0 0 124.3 121.5" style="enable-background:new 0 0 124.3 121.5;" xml:space="preserve">
<style type="text/css">
	.st0{fill:#202020;}
	.st1{fill:#FF5F5F;}
	.st2{fill:#FFFFFF;}
	.st3{fill:#451F63;}
</style>
<g>
	<g>
		<path class="st0" d="M71.6,40.9c-1.2,0-2.1-0.9-2.1-2.1s0.9-2.1,2.1-2.1s2.1,0.9,2.1,2.1S72.8,40.9,71.6,40.9z M71.6,37.6
			c-0.6,0-1.1,0.5-1.1,1.1s0.5,1.1,1.1,1.1s1.1-0.5,1.1-1.1S72.2,37.6,71.6,37.6z"/>
	</g>
	<g>
		<path class="st0" d="M82.8,40.9c-1.2,0-2.1-0.9-2.1-2.1s0.9-2.1,2.1-2.1s2.1,0.9,2.1,2.1S84,40.9,82.8,40.9z M82.8,37.6
			c-0.6,0-1.1,0.5-1.1,1.1s0.5,1.1,1.1,1.1s1.1-0.5,1.1-1.1S83.5,37.6,82.8,37.6z"/>
	</g>
	<g>
		<polygon class="st0" points="83.6,34.3 71.2,34.3 68.2,22.1 64.9,22.1 64.9,21.1 69,21.1 72,33.3 82.8,33.3 84.6,25.8 72.5,25.8 
			72.5,24.8 86,24.8 		"/>
	</g>
</g>
<g>
	<g>
		<polygon class="st1" points="95.3,33.7 97.6,33.7 97.6,21.9 107.8,21.2 107.8,18.9 88.6,20.1 88.7,22.5 95.3,22 		"/>
	</g>
	<g>
		<path class="st1" d="M99.4,33.5h9.8V23.1l-9.8,1.1V33.5z M101.8,26.3l5.1-0.6v5.5h-5.1V26.3z"/>
	</g>
	<g>
		<path class="st1" d="M113.3,28.6l6.7-0.7v-7.5l-9-0.5v13.7h2.3V28.6z M113.3,22.5l4.3,0.2v3.1l-4.3,0.5V22.5z"/>
	</g>
	<g>
		<polygon class="st1" points="94.7,35.6 90.5,35.6 90.5,37.9 94.7,37.9 94.7,45.6 97.1,45.6 97.1,37.9 100.3,37.9 100.3,35.6 
			97.1,35.6 		"/>
	</g>
	<g>
		<path class="st1" d="M102.1,45.5l17.8-0.4v-9.5h-17.8C102.1,35.6,102.1,45.5,102.1,45.5z M104.6,37.9h13.1v4.9l-13.1,0.3V37.9z"/>
	</g>
	<g>
		<path class="st1" d="M91.1,59.5l18.2-1.6l-0.2-2.3l-2.1,0.2l-1.7-8.2L95,47.9L93.8,57l-2.7,0.2C91.1,57.2,91.1,59.5,91.1,59.5z
			 M96.9,50.1l6.5-0.2l1.3,6.1l-8.6,0.7L96.9,50.1z"/>
	</g>
	<g>
		<polygon class="st1" points="119.9,49.8 119.9,47.5 110.8,47.5 110.9,54.9 110.9,55.6 110.9,55.6 111.1,62.1 121.1,62.7 
			121.1,60.4 113.4,59.9 113.3,55.6 117.8,55.6 117.8,53.2 113.3,53.2 113.1,49.9 		"/>
	</g>
	<g>
		<polygon class="st1" points="101.9,60.6 93.1,61.4 90.2,72.7 92.5,73.3 95.1,63.6 99.8,63.1 100.8,73.5 103.1,73.2 		"/>
	</g>
	<g>
		<path class="st1" d="M121.3,73.4l-0.6-8.3l-13.6-0.6l-0.4-4.3l-2.3,0.2l1.2,12.9L121.3,73.4L121.3,73.4z M118.6,67.3l0.3,3.7
			h-11.1l-0.4-4.1L118.6,67.3z"/>
	</g>
	<g>
		<polygon class="st1" points="97.3,75.2 97.4,80.4 92.8,81.4 92.8,75.1 90.5,75.1 90.5,89 92.8,89 92.8,83.7 97.6,82.7 97.9,88.9 
			100.3,88.8 99.6,75.1 		"/>
	</g>
	<g>
		<path class="st1" d="M121.9,75.8h-20.3l0.9,7.3l12.8,1l-5.5,2.4l-7.5,0.1v2.3l8-0.1l9.6-4.2l0.2,4.4l2.3-0.1L121.9,75.8z
			 M104.6,80.9l-0.4-2.8h15.4l0.2,4L104.6,80.9z"/>
	</g>
	<g>
		<path class="st1" d="M106.9,17.1l3.7-5.1l-2.7-4.8L105,8.4l0.6-4.4l3.1-1.7l-1.1-2.1l-4.2,2.2l-1,6.2L100.3,8l-2.2,4.6l3.7,4.9
			L106.9,17.1z M101.6,10.9l2.1,0.7l3.2-1.4l1,1.7l-2.2,3l-2.9,0.1l-2.1-2.7L101.6,10.9z"/>
	</g>
</g>
<path class="st2" d="M85.5,96.6L74.4,91c-0.5-0.2-1.1,0-1.3,0.5c-0.2,0.5,0,1.1,0.5,1.3l7.3,3.6H1.6c-0.6,0-1,0.4-1,1s0.4,1,1,1
	h79.3l-7.3,3.6c-0.5,0.2-0.7,0.8-0.5,1.3c0.2,0.4,0.5,0.6,0.9,0.6c0.1,0,0.3,0,0.4-0.1l11-5.5c0.3-0.2,0.6-0.5,0.6-0.9
	S85.9,96.8,85.5,96.6z"/>
<path class="st3" d="M85.5,111.2l-11.2-5.5c-0.5-0.2-1.1,0-1.3,0.5c-0.2,0.5,0,1.1,0.5,1.3l7.3,3.6H1.6c-0.6,0-1,0.4-1,1s0.4,1,1,1
	h79.3l-7.3,3.6c-0.5,0.2-0.7,0.8-0.5,1.3c0.2,0.4,0.5,0.6,0.9,0.6c0.1,0,0.3,0,0.4-0.1l11-5.5c0.3-0.2,0.6-0.5,0.6-0.9
	S85.9,111.4,85.5,111.2z"/>
<g>
	<path class="st1" d="M105.2,106.2l0.3-4.5l3-2l-1.3-2l-4,2.6l-0.5,6.3l-2.3-0.5l-1.8,4.9l4.1,4.6l5.2-0.8l3.3-5.4l-3.2-4.6
		L105.2,106.2z M106.5,112.6l-2.8,0.4l-2.3-2.6l0.6-1.5l2.2,0.5l3.1-1.7l1.1,1.6L106.5,112.6z"/>
	<path class="st1" d="M113.6,91.6l-15.2,1.3l-9.2,13.2l7.7,14.8l18.1-1.5l5.1-9.1L113.6,91.6z M113.6,117.2l-15.3,1.2L92,106.3
		l7.8-11.1l12.2-1.1l5.6,16.1L113.6,117.2z"/>
</g>
</svg>
